<svg id="b" width="360px" height="360px" enable-background="new 0 0 360 360" version="1.1" viewBox="0 0 360 360" xmlns="http://www.w3.org/2000/svg">
 <circle id="c" cx="180" cy="180" r="176.4" fill="#201447"/>
 <g id="d">
  <path d="m176.2 12.65c-2.332 0.052-4.649 0.1567-6.957 0.3027l1.65 26.05c1.947-0.123 3.902-0.2138 5.869-0.2578l-0.5625-26.09zm14.72 0.3203-1.736 26.04c1.977 0.127 3.943 0.29 5.896 0.498l2.77-25.95c-2.296-0.244-4.607-0.4359-6.93-0.5859zm-40.56 2.242c-6.791 1.211-13.44 2.834-19.92 4.838l7.656 24.96c5.514-1.708 11.17-3.087 16.95-4.115l-4.689-25.68zm66.17 1.408-5.801 25.45c7.65 1.699 15.07 4.019 22.19 6.902l9.688-24.24c-8.378-3.384-17.09-6.11-26.08-8.113zm-91.63 5.258c-4.374 1.522-8.666 3.22-12.87 5.086l10.52 23.89c3.583-1.595 7.246-3.042 10.98-4.34l-8.631-24.64zm123.1 5.143-10.63 23.84c1.795 0.799 3.566 1.635 5.32 2.506l11.57-23.4c-2.062-1.023-4.146-2.008-6.254-2.947zm-149.2 6.52c-2.018 1.12-4.014 2.274-5.979 3.473l13.56 22.31c1.672-1.021 3.371-2.002 5.088-2.955l-12.67-22.82zm168.3 3.564-13.64 22.25c3.342 2.043 6.589 4.226 9.74 6.531l15.35-21.11c-3.705-2.708-7.521-5.272-11.45-7.674zm-195.2 14.95c-3.487 2.944-6.855 6.022-10.09 9.238l18.37 18.54c2.751-2.737 5.619-5.357 8.586-7.861l-16.86-19.92zm226.2 9.436-18.45 18.46c1.357 1.355 2.683 2.742 3.986 4.15l19.19-17.69c-1.545-1.672-3.117-3.318-4.729-4.926zm-244.9 9.107c-1.516 1.755-2.994 3.545-4.438 5.363l20.43 16.24c1.229-1.547 2.484-3.07 3.775-4.564l-19.77-17.04zm258 5.553-20.48 16.17c1.217 1.536 2.399 3.101 3.553 4.688l21.11-15.35c-1.357-1.864-2.746-3.703-4.176-5.508zm-274.6 17.38c-1.185 1.96-2.327 3.949-3.432 5.959l22.88 12.57c0.94-1.711 1.912-3.402 2.92-5.07l-22.36-13.46zm287 0.498-22.41 13.38c1.022 1.705 2.016 3.428 2.967 5.178l22.93-12.48c-1.119-2.056-2.286-4.082-3.488-6.084zm6.301 11.51-23.4 11.57c1.73 3.475 3.326 7.028 4.771 10.66l24.23-9.703c-1.7-4.265-3.575-8.441-5.607-12.53zm-302.3 4.988c-3.765 8.241-6.873 16.84-9.275 25.74l25.17 6.916c2.039-7.57 4.687-14.89 7.895-21.9l-23.79-10.75zm312.1 19.41-24.92 7.787c0.578 1.845 1.113 3.709 1.617 5.586l25.2-6.809c-0.591-2.206-1.219-4.395-1.898-6.564zm-322.8 11.98c-0.524 2.253-0.9947 4.527-1.428 6.814l25.64 4.902c0.368-1.946 0.7678-3.882 1.215-5.799l-25.43-5.918zm330.2 28.52-26.06 1.447c0.152 2.691 0.2383 5.401 0.2383 8.131 0 1.212-0.01492 2.42-0.04492 3.625l26.09 0.6113c0.035-1.408 0.05273-2.819 0.05273-4.236 0-3.215-0.1003-6.408-0.2793-9.578zm-308.4 12-26.09 0.5078c0.079 4.592 0.3363 9.139 0.7773 13.63l25.98-2.539c-0.377-3.824-0.5952-7.694-0.6602-11.6zm1.252 16.64-25.86 3.553c0.307 2.27 0.6499 4.528 1.047 6.768l25.7-4.561c-0.337-1.906-0.6296-3.828-0.8906-5.76zm279.1 6.047c-0.352 1.96-0.7496 3.903-1.182 5.834l25.51 5.535c0.494-2.218 0.9515-4.45 1.355-6.701l-25.68-4.668zm-275.9 10.29-25.27 6.566c0.582 2.253 1.219 4.485 1.891 6.701l24.98-7.566c-0.572-1.886-1.112-3.783-1.607-5.701zm273.5 0.4902c-0.495 1.892-1.029 3.77-1.6 5.629l24.96 7.643c0.67-2.185 1.296-4.389 1.879-6.613l-25.24-6.658zm-267.8 16.81-24.2 9.789c1.724 4.279 3.619 8.47 5.676 12.56l23.35-11.66c-1.752-3.484-3.363-7.05-4.828-10.69zm259.8 5.711c-0.818 1.801-1.676 3.58-2.566 5.34l23.31 11.75c1.046-2.068 2.053-4.157 3.016-6.273l-23.76-10.82zm-4.812 9.592c-3.758 6.833-8.062 13.32-12.86 19.41l20.58 16.06c5.631-7.154 10.69-14.78 15.11-22.81l-22.83-12.66zm-242.2 9.338-21.77 14.4c1.229 1.874 2.491 3.725 3.793 5.545l21.26-15.15c-1.127-1.575-2.219-3.176-3.281-4.797zm13.52 17.49-19.33 17.54c1.895 2.09 3.84 4.133 5.836 6.125l18.46-18.46c-1.699-1.695-3.355-3.434-4.967-5.213zm209.1 0.4102c-1.49 1.632-3.018 3.23-4.582 4.791l18.46 18.46c1.837-1.834 3.632-3.712 5.383-5.629l-19.26-17.62z" fill="#d1ced9"/>
 </g>
 <g id="f">
  <circle id="g" cx="180" cy="180" r="132.3" fill="#0AC18E"/>
  <path id="i" d="m221.3 135.6c-6.647-15.08-21.93-18.3-40.63-15.18l-6.011-23.3-14.17 3.659 5.91 23.24c-3.729 0.94-7.557 1.745-11.35 2.821l-5.911-23.1-14.17 3.661 6.012 23.3c-3.056 0.872-28.61 7.42-28.61 7.42l3.895 15.18s10.41-2.921 10.31-2.687c5.775-1.511 8.495 1.377 9.771 4.097l16.52 63.87c0.202 1.848-0.134 5.004-4.095 6.078 0.234 0.134-10.31 2.652-10.31 2.652l1.544 17.7s25.32-6.482 28.64-7.321l6.079 23.57 14.17-3.659-6.078-23.74c3.896-0.907 7.69-1.848 11.38-2.821l6.045 23.6 14.17-3.66-6.078-23.54c21.83-5.307 37.24-19.07 34.08-40.13-2.015-12.69-15.88-23.1-27.4-24.28 7.08-6.28 10.68-15.45 6.276-27.43zm-6.816 55.57c2.82 20.85-26.16 23.4-35.73 25.92l-8.327-31.19c9.604-2.518 39.29-13.1 44.06 5.272zm-17.46-42.48c2.987 18.54-21.79 20.68-29.78 22.73l-7.59-28.31c8.027-1.981 31.3-11.58 37.37 5.575z" fill="#fff"/>
 </g>
 <g id="j" fill="#fff">
  <path id="l" d="m267.9 318.1c0.804-0.518 1.322-0.962 1.555-1.334s0.204-0.783-0.087-1.234c-0.228-0.354-0.643-0.523-1.244-0.511-0.603 0.014-1.452 0.138-2.55 0.373-0.851 0.188-1.645 0.323-2.38 0.408-0.736 0.086-1.424 0.063-2.063-0.066s-1.236-0.39-1.793-0.78c-0.558-0.391-1.075-0.959-1.556-1.705-0.935-1.451-1.135-2.946-0.599-4.484 0.535-1.538 1.745-2.915 3.628-4.127 0.941-0.606 1.897-1.104 2.868-1.494 0.971-0.389 1.774-0.649 2.41-0.782l1.434 3.906c-0.624 0.152-1.279 0.352-1.966 0.6s-1.403 0.612-2.148 1.092c-1.373 0.885-1.813 1.709-1.32 2.475 0.113 0.176 0.244 0.314 0.392 0.414 0.147 0.099 0.351 0.155 0.608 0.169 0.259 0.015 0.588-2e-3 0.987-0.05 0.4-0.048 0.893-0.134 1.478-0.26 1.19-0.263 2.211-0.423 3.063-0.481 0.851-0.058 1.586-3e-3 2.207 0.164 0.622 0.168 1.164 0.449 1.626 0.843 0.462 0.395 0.901 0.915 1.317 1.561 0.983 1.527 1.153 3.052 0.51 4.574-0.644 1.521-2.015 2.958-4.113 4.311-1.374 0.884-2.592 1.502-3.656 1.854-1.063 0.352-1.822 0.563-2.276 0.634l-1.558-4.034c0.935-0.186 1.849-0.448 2.74-0.787 0.893-0.34 1.721-0.756 2.486-1.249z"/>
  <path id="n" d="m238.3 318.1c0.685-0.619 1.608-1.334 2.771-2.146 1.161-0.813 2.435-1.556 3.819-2.229 1.405-0.684 2.665-1.069 3.777-1.157 1.111-0.087 2.104 0.072 2.977 0.478 0.872 0.406 1.648 1.015 2.328 1.825 0.681 0.812 1.296 1.783 1.848 2.916l4.55 9.347-4.689 2.282-4.273-8.78c-0.735-1.511-1.456-2.483-2.16-2.919-0.705-0.436-1.604-0.388-2.694 0.144-0.336 0.163-0.685 0.353-1.047 0.568s-0.68 0.415-0.953 0.6l6.219 12.78-4.688 2.282-7.785-15.99z"/>
  <path id="e" d="m221.9 333c-0.517-1.549-0.731-2.984-0.643-4.306 0.088-1.32 0.391-2.497 0.907-3.53s1.211-1.917 2.086-2.651c0.874-0.734 1.843-1.278 2.905-1.633 2.479-0.826 4.69-0.722 6.635 0.314 1.944 1.037 3.408 3.027 4.39 5.971 0.096 0.288 0.189 0.607 0.282 0.958 0.092 0.351 0.171 0.662 0.238 0.935l-11.22 3.742c0.45 0.981 1.195 1.631 2.235 1.948 1.041 0.317 2.27 0.239 3.686-0.233 0.908-0.303 1.771-0.683 2.59-1.14 0.819-0.458 1.465-0.9 1.938-1.329l2.003 3.797c-0.221 0.221-0.531 0.472-0.93 0.752-0.398 0.281-0.852 0.562-1.361 0.842s-1.063 0.558-1.659 0.83c-0.599 0.273-1.207 0.513-1.826 0.72-1.572 0.524-3.017 0.747-4.333 0.67-1.317-0.077-2.492-0.393-3.525-0.945-1.033-0.554-1.917-1.322-2.651-2.308s-1.316-2.12-1.744-3.404zm10.99-5.768c-0.162-0.413-0.371-0.799-0.625-1.156-0.255-0.358-0.562-0.649-0.919-0.875-0.358-0.225-0.765-0.372-1.218-0.442-0.454-0.07-0.969-9e-3 -1.544 0.183-0.554 0.185-0.998 0.438-1.333 0.759-0.336 0.321-0.585 0.681-0.747 1.079s-0.247 0.826-0.255 1.284 0.026 0.907 0.1 1.35l6.541-2.182z"/>
  <path id="k" d="m208.7 333c0.393-0.647 0.796-1.321 1.214-2.021 0.416-0.699 0.817-1.391 1.202-2.072 0.386-0.682 0.747-1.329 1.087-1.942 0.339-0.612 0.63-1.145 0.871-1.597l6.077-1.232c-0.93 1.639-1.844 3.207-2.741 4.708-0.898 1.5-1.896 3.063-2.995 4.688 0.812 0.479 1.67 1.074 2.576 1.784 0.905 0.711 1.795 1.455 2.666 2.232 0.872 0.777 1.687 1.565 2.444 2.366 0.757 0.8 1.407 1.539 1.949 2.216l-5.877 1.191c-0.486-0.521-1.036-1.096-1.65-1.724-0.614-0.627-1.257-1.248-1.929-1.863s-1.365-1.197-2.082-1.743c-0.717-0.547-1.408-0.992-2.071-1.335l1.604 7.908-5.11 1.036-5.231-25.8 4.944-1.859 3.052 15.05z"/>
  <path id="o" d="m200 337.2c0.099 1.443-0.021 2.778-0.358 4.006-0.337 1.229-0.873 2.294-1.605 3.197-0.733 0.904-1.637 1.626-2.711 2.167s-2.298 0.859-3.671 0.953c-1.35 0.092-2.594-0.057-3.731-0.447-1.138-0.39-2.131-0.982-2.98-1.778-0.85-0.795-1.537-1.777-2.061-2.946-0.524-1.168-0.835-2.474-0.934-3.918-0.099-1.442 0.038-2.773 0.411-3.992 0.373-1.218 0.932-2.273 1.678-3.167 0.746-0.893 1.656-1.609 2.73-2.15s2.262-0.856 3.566-0.945c1.327-0.091 2.559 0.059 3.697 0.448 1.137 0.391 2.13 0.978 2.979 1.761 0.848 0.784 1.535 1.755 2.058 2.912s0.834 2.456 0.932 3.899zm-5.308 0.362c-0.11-1.606-0.516-2.847-1.219-3.723s-1.648-1.273-2.835-1.192-2.076 0.604-2.664 1.568c-0.589 0.964-0.829 2.249-0.719 3.855s0.522 2.858 1.239 3.757c0.716 0.898 1.668 1.307 2.855 1.226s2.068-0.615 2.645-1.602c0.575-0.985 0.808-2.282 0.698-3.889z"/>
  <path id="T" d="m183 323.5-0.225 4.65-7.306-0.354-0.948 19.58-5.454-0.264 0.948-19.58-7.307-0.354 0.225-4.649 20.07 0.971z"/>
  <path id="h" d="m141.8 343.2 4.758-25.89 5.281 0.116-1.594 8.675c0.365-0.051 0.827-0.079 1.385-0.083 0.558-5e-3 1.09 0.04 1.595 0.133 1.468 0.27 2.653 0.695 3.556 1.276 0.901 0.581 1.577 1.292 2.027 2.134s0.703 1.79 0.758 2.844c0.056 1.055-0.031 2.201-0.258 3.44l-1.879 10.22-5.129-0.943 1.765-9.604c0.304-1.652 0.307-2.862 9e-3 -3.628-0.298-0.767-1.021-1.256-2.168-1.467-0.459-0.084-0.897-0.123-1.313-0.116-0.417 7e-3 -0.794 0.026-1.132 0.059l-2.531 13.77-5.13-0.943z"/>
  <path id="s" d="m130.6 336.1c0.914 0.283 1.587 0.396 2.022 0.335 0.434-0.061 0.73-0.347 0.89-0.859 0.125-0.4-0.012-0.828-0.408-1.281-0.397-0.453-1.038-1.024-1.922-1.716-0.69-0.532-1.304-1.053-1.841-1.563-0.538-0.509-0.962-1.051-1.273-1.624s-0.495-1.198-0.553-1.876 0.045-1.439 0.308-2.287c0.513-1.648 1.531-2.761 3.055-3.338 1.523-0.577 3.354-0.533 5.493 0.133 1.07 0.332 2.064 0.746 2.986 1.24 0.921 0.494 1.637 0.943 2.147 1.346l-2.075 3.606c-0.518-0.381-1.091-0.755-1.722-1.122s-1.37-0.683-2.216-0.946c-1.56-0.484-2.475-0.293-2.745 0.576-0.063 0.2-0.084 0.39-0.066 0.565 0.018 0.178 0.105 0.369 0.261 0.576 0.155 0.208 0.379 0.449 0.672 0.725s0.675 0.599 1.147 0.967c0.965 0.744 1.744 1.424 2.335 2.038 0.59 0.615 1.021 1.214 1.292 1.798 0.27 0.584 0.402 1.181 0.397 1.788-6e-3 0.607-0.123 1.278-0.351 2.012-0.54 1.734-1.599 2.843-3.179 3.327-1.58 0.483-3.562 0.354-5.946-0.387-1.56-0.485-2.816-1.022-3.769-1.612s-1.603-1.035-1.948-1.339l2.093-3.784c0.742 0.598 1.53 1.13 2.362 1.597 0.835 0.467 1.686 0.835 2.554 1.105z"/>
  <path id="a" d="m119.3 315.6c1.408 0.624 2.51 1.304 3.307 2.04 0.796 0.735 1.345 1.528 1.646 2.376 0.3 0.848 0.379 1.75 0.236 2.707-0.144 0.958-0.447 1.959-0.91 3.004l-4.396 9.92c-0.75-0.153-1.776-0.397-3.082-0.734-1.306-0.336-2.823-0.887-4.55-1.653-1.088-0.481-2.033-1.015-2.833-1.6-0.8-0.584-1.423-1.236-1.87-1.958-0.446-0.72-0.684-1.509-0.713-2.364-0.03-0.854 0.183-1.794 0.636-2.818 0.435-0.98 1-1.726 1.698-2.233 0.697-0.508 1.466-0.817 2.307-0.93 0.84-0.112 1.728-0.07 2.662 0.127 0.933 0.196 1.859 0.498 2.776 0.904 0.618 0.274 1.156 0.545 1.612 0.811 0.457 0.267 0.814 0.508 1.076 0.726l0.199-0.448c0.359-0.811 0.402-1.569 0.129-2.277s-1.018-1.332-2.233-1.871c-0.811-0.359-1.637-0.654-2.478-0.888-0.842-0.232-1.598-0.369-2.268-0.411l1.094-4.109c0.314 0.038 0.702 0.101 1.16 0.188 0.458 0.089 0.949 0.204 1.474 0.347 0.523 0.144 1.069 0.309 1.637 0.496 0.568 0.186 1.129 0.402 1.684 0.648zm-5.799 14.12c0.469 0.207 0.921 0.396 1.358 0.563 0.436 0.168 0.792 0.287 1.066 0.357l1.603-3.616c-0.173-0.127-0.442-0.297-0.807-0.511-0.365-0.213-0.708-0.39-1.028-0.531-0.448-0.199-0.881-0.358-1.299-0.48s-0.81-0.174-1.174-0.157c-0.365 0.018-0.689 0.116-0.974 0.296-0.284 0.181-0.511 0.463-0.681 0.847-0.331 0.747-0.31 1.375 0.064 1.886 0.373 0.509 0.997 0.957 1.872 1.346z"/>
  <path id="C" d="m94.01 324.2c-3.354-2.073-5.333-4.585-5.937-7.537-0.604-2.95 0.155-6.144 2.277-9.578 1.055-1.707 2.265-3.064 3.628-4.073s2.797-1.687 4.301-2.033c1.503-0.347 3.047-0.359 4.632-0.038 1.584 0.321 3.131 0.947 4.64 1.879 0.873 0.54 1.627 1.095 2.262 1.666s1.168 1.106 1.6 1.606 0.771 0.95 1.018 1.349 0.418 0.697 0.517 0.896l-3.658 2.923c-0.427-0.729-0.988-1.475-1.685-2.234-0.697-0.76-1.581-1.47-2.652-2.132-0.715-0.442-1.488-0.755-2.32-0.94s-1.674-0.177-2.525 0.024-1.693 0.62-2.525 1.257c-0.833 0.638-1.617 1.552-2.353 2.742-0.589 0.953-1.034 1.906-1.334 2.858-0.301 0.953-0.402 1.87-0.303 2.754 0.098 0.884 0.417 1.732 0.957 2.546 0.54 0.813 1.346 1.552 2.417 2.214 0.674 0.417 1.305 0.752 1.89 1.004s1.12 0.452 1.604 0.6c0.484 0.149 0.928 0.252 1.332 0.309 0.403 0.058 0.771 0.106 1.103 0.146l-1.02 4.514c-0.9-8e-3 -2.044-0.221-3.431-0.64-1.389-0.42-2.867-1.113-4.435-2.082z"/>
 </g>
</svg>
