<svg version="1.1" viewBox="0 0 16 16" xmlns="http://www.w3.org/2000/svg">
  <circle cx="8" cy="8" r="8" fill="#fff" stroke-width="0"/>
  <path d="m8 0c-4.43 0-8 3.57-8 8 0 4.43 3.57 8 8 8 4.43 0 8-3.57 8-8 0-4.43-3.57-8-8-8zm-0.277 3.02c0.00188 0.00188 0.0852 0.303 0.186 0.67 0.101 0.366 0.185 0.668 0.188 0.67 0.00188 0.00284 0.0393-0.00184 0.0836-0.00938 0.392-0.0697 0.846-0.0889 1.11-0.0484 0.633 0.0979 1.02 0.414 1.21 0.999 0.185 0.557 0.0913 1.02-0.284 1.41l-0.0688 0.0711h0.111c0.78 0 1.27 0.371 1.47 1.12 0.122 0.443 0.127 0.857 0.0141 1.2-0.0386 0.119-0.129 0.295-0.205 0.402-0.137 0.193-0.394 0.418-0.658 0.576-0.261 0.156-0.71 0.356-1.02 0.455-0.0282 0.0094-0.0548 0.0189-0.0586 0.0227-0.00376 0.0028 0.0668 0.273 0.156 0.599 0.0904 0.327 0.174 0.632 0.187 0.679l0.0234 0.0852-0.402 0.11c-0.22 0.0603-0.405 0.109-0.41 0.109-0.00565 0-0.0924-0.299-0.192-0.666-0.101-0.367-0.183-0.668-0.184-0.669-9.58e-4 -0.0019-0.135 0.0332-0.298 0.0766-0.163 0.0433-0.31 0.0822-0.326 0.0859-0.0169 0.0028-0.0313 0.0108-0.0313 0.0164 0 0.0104 0.0149 0.0645 0.244 0.897 0.0669 0.244 0.121 0.443 0.119 0.445-9.58e-4 9.58e-4 -0.185 0.0529-0.408 0.114l-0.405 0.111-0.00938-0.0289c-0.00565-0.016-0.0583-0.209-0.12-0.43-0.184-0.671-0.247-0.895-0.251-0.9-0.00284-0.0019-0.374 0.097-0.827 0.22-0.453 0.123-0.824 0.224-0.826 0.223-0.00284-0.0028-0.105-0.98-0.105-1.01 0-0.016 0.00693-0.0219 0.0305-0.0266 0.0706-0.0132 0.526-0.138 0.591-0.162 0.0951-0.0358 0.171-0.107 0.192-0.182 0.0264-0.0894 0.0196-0.146-0.0406-0.367-0.0311-0.112-0.131-0.475-0.222-0.806-0.0913-0.331-0.225-0.816-0.297-1.08-0.0716-0.262-0.181-0.662-0.245-0.89-0.0631-0.228-0.134-0.484-0.156-0.57-0.0235-0.0857-0.0538-0.174-0.068-0.198-0.0414-0.0725-0.104-0.13-0.179-0.166-0.0631-0.032-0.079-0.0362-0.161-0.0391-0.126-0.00565-0.22 0.0157-0.691 0.153-0.0763 0.0217-0.113 0.0278-0.115 0.0203-0.00659-0.0188-0.232-0.849-0.234-0.857 0-0.00376 0.0821-0.0305 0.183-0.0578 0.101-0.0282 0.469-0.13 0.819-0.227 0.349-0.096 0.638-0.178 0.642-0.18 0.00376-0.00284-0.0758-0.304-0.177-0.67-0.101-0.365-0.181-0.669-0.179-0.673 0.00188-0.00565 0.0258-0.0161 0.0531-0.0227 0.0282-0.00753 0.209-0.0574 0.403-0.11 0.194-0.0537 0.355-0.0972 0.355-0.0953 9.58e-4 9.42e-4 0.0824 0.297 0.181 0.656 0.0998 0.36 0.183 0.656 0.185 0.658 0.00188 0.00188 0.129-0.0329 0.284-0.0781 0.154-0.0452 0.299-0.087 0.323-0.0945 0.033-0.00942 0.0417-0.0157 0.0398-0.0289-0.00188-0.0104-0.0822-0.302-0.177-0.649-0.0951-0.346-0.173-0.634-0.173-0.64 0-0.00847 0.808-0.235 0.815-0.229zm0.401 2.42c-0.214 0.00565-0.377 0.03-0.641 0.0969-0.161 0.0395-0.573 0.159-0.581 0.168-0.00376 0.00376 0.118 0.456 0.405 1.5 0.0226 0.0819 0.0434 0.139 0.05 0.139 0.00565 0 0.0848-0.0194 0.174-0.043 0.619-0.162 0.956-0.302 1.22-0.509 0.0913-0.0716 0.151-0.136 0.212-0.228 0.0565-0.0857 0.082-0.152 0.101-0.261 0.0179-0.106 0.0066-0.221-0.0367-0.348-0.096-0.287-0.292-0.445-0.622-0.501-0.0772-0.0122-0.132-0.0149-0.28-0.0102zm0.963 2.4c-0.239 0.00896-0.522 0.0563-0.854 0.141-0.213 0.0546-0.655 0.185-0.655 0.195 0 0.00376 0.11 0.408 0.245 0.898 0.135 0.49 0.245 0.892 0.245 0.895 0 0.00942 0.0201 0.00507 0.219-0.0477 0.874-0.229 1.35-0.442 1.63-0.739 0.0876-0.0923 0.124-0.142 0.169-0.238 0.0508-0.106 0.0658-0.175 0.0648-0.298 0-0.199-0.0744-0.395-0.202-0.53-0.187-0.199-0.465-0.291-0.863-0.276z" fill="#8dc351"/>
</svg>
