<svg width="24" height="24" version="1.1" viewBox="0 0 24 24" xmlns="http://www.w3.org/2000/svg">
 <path d="m3.67 0c-2.02 0-3.67 1.65-3.67 3.67v16.6c0 2.02 1.65 3.67 3.67 3.67h16.6c2.02 0 3.67-1.65 3.67-3.67v-16.6c0-2.02-1.65-3.67-3.67-3.67h-16.6zm6.34 5.02v4.9c0.674-0.888 1.53-1.35 2.54-1.35 1.13 0 1.96 0.398 2.51 1.22 0.551 0.796 0.797 1.93 0.797 3.4 0.0306 1.35-0.276 2.45-0.889 3.31s-1.47 1.26-2.6 1.26c-1.01 0-1.84-0.369-2.42-1.1l-0.0918 0.92h-1.26v-12.4l1.41-0.154zm-3.7 4.16 0.766 1.04-3.46 2.11 3.55 2.2-0.766 1.01-4.01-2.51v-1.47l3.92-2.39zm11.4 0 3.89 2.42v1.44l-4.01 2.51-0.736-1.01 3.55-2.2-3.46-2.11 0.766-1.04zm-5.45 0.49c-0.459 0-0.857 0.123-1.22 0.398-0.367 0.276-0.703 0.612-0.978 1.01v4.38c0.245 0.367 0.519 0.642 0.887 0.826 0.337 0.214 0.735 0.307 1.13 0.307 0.735 0 1.32-0.307 1.72-0.889 0.398-0.582 0.582-1.44 0.582-2.6 0-1.13-0.185-2.02-0.522-2.6-0.367-0.52-0.888-0.826-1.59-0.826z" fill="#24282A"/>
</svg>
