<svg style="height:400px;width:400px" version="1.1" viewBox="0 0 16 16" xmlns="http://www.w3.org/2000/svg">
 <defs>
  <linearGradient id="grad" x1="11.7" x2="5.7" y1="14.2" y2=".734" gradientTransform="scale(.921 1.09)" gradientUnits="userSpaceOnUse">
   <stop stop-color="#8300db" stop-opacity=".823" offset=".179"/>
   <stop stop-color="#ef2800" offset=".95"/>
  </linearGradient>
 </defs>
 <circle cx="8" cy="8" r="8" fill="#fff"/>
 <path d="m8 0a8 8 0 0 0-8 8 8 8 0 0 0 8 8 8 8 0 0 0 8-8 8 8 0 0 0-8-8zm-2.475 2.193 0.001953 0.001953c0.08611-0.01462 0.1487 0.03995 0.1836 0.1699 0.9586 3.574 6.703 4.494 6.703 7.215 1e-6 2.518-1.187 4.287-4.42 4.287-2.957 0.01625-4.729-2.014-4.729-4.654 0-3.509 1.659-6.919 2.26-7.02zm2.527 0.1504c1.042 0.04236 1.882 1.021 2.109 1.184 1.407 1.01-2.887-0.7127-3.205-0.007813-0.2463 0.5452-0.8247-0.254-0.6953-0.5059 0.09631-0.3723 1.166-0.6953 1.791-0.6699zm2.141 0.3477c0.3435-0.1007 2.182 2.756 2.227 4.742 0.01176 0.358-4.847-2.414-5.057-3.166-0.1811-0.6726 0.175-0.8705 0.8887-0.6875 4.265 1.057 1.782-0.3405 1.895-0.8281 0.008639-0.03415 0.02397-0.05383 0.04688-0.06055z" fill="url(#grad)"/>
</svg>
