<svg width="48" height="48" version="1.1" viewBox="0 0 960 960" xmlns="http://www.w3.org/2000/svg">
 <rect x="185.9" y="358.1" width="632" height="556.5" fill="#fff" stroke-width="0"/>
 <path transform="scale(20)" d="m24.38 1.145c-2.943 0-5.412 1.008-7.406 3.021-1.994 2.014-2.992 4.58-2.992 7.699v3.678h-2.537c-1.328 0-2.479 0.4888-3.455 1.465-0.9761 0.9761-1.465 2.127-1.465 3.455v21.54c0 1.314 0.4888 2.454 1.465 3.42 0.9761 0.9657 2.127 1.449 3.455 1.449 8.536 0 17.07 0.09984 25.6 0.1172l5.363-0.02148-0.01758-6.232c0.07231-5.008 0.03391-17.97-0.08203-20.28 4e-4 -1.328-0.4887-2.479-1.465-3.455-0.9761-0.9761-2.127-1.465-3.455-1.465h-2.537v-3.678c0-3.073-1.009-5.629-3.029-7.666-2.02-2.037-4.502-3.055-7.445-3.055zm0.02344 4.92c1.579 0 2.906 0.5371 3.977 1.607 1.071 1.07 1.605 2.467 1.605 4.193v3.678h-11.13v-3.678c0-1.726 0.5365-3.123 1.605-4.193 1.069-1.07 2.382-1.607 3.947-1.607zm-9.363 12.58c1.316 0 2.434 0.4597 3.355 1.381 0.9212 0.9212 1.383 2.04 1.383 3.355 0 1-0.2965 1.909-0.8887 2.725s-1.348 1.409-2.27 1.777v12.87h-3.158v-1.58h-3.158v-3.158h3.158v-8.131c-0.9212-0.3685-1.679-0.9615-2.271-1.777-0.5922-0.8159-0.8867-1.725-0.8867-2.725 0-1.316 0.4597-2.434 1.381-3.355 0.9212-0.9211 2.04-1.381 3.355-1.381zm0 3.158c-0.4474 0-0.8223 0.1505-1.125 0.4531-0.3027 0.3027-0.4531 0.6776-0.4531 1.125 0 0.4474 0.1505 0.8223 0.4531 1.125 0.3027 0.3027 0.6776 0.4551 1.125 0.4551s0.8223-0.1524 1.125-0.4551c0.3027-0.3027 0.4551-0.6776 0.4551-1.125 0-0.4474-0.1524-0.8223-0.4551-1.125-0.3027-0.3027-0.6776-0.4531-1.125-0.4531zm14.73 2.779c5.694 0 10.31 4.618 10.31 10.31 0 5.694-4.616 10.31-10.31 10.31s-10.31-4.616-10.31-10.31c0-5.694 4.616-10.31 10.31-10.31zm-2.5 4.117c-1.988-0.0501-3.716 1.818-3.434 3.973 0.4511 3.448 4.594 6.087 3.891 10.05 2.535-2.495 8.766-5.56 8.969-9.182 0.2024-3.622-3.565-6.681-5.947-2.33-1-1.763-2.286-2.484-3.479-2.514z" fill="#800000" stroke-width=".0025"/>
</svg>
