<svg width="350" height="350" version="1.1" viewBox="0 0 350 350" xmlns="http://www.w3.org/2000/svg">
 <circle cx="175" cy="175" r="175" fill="#fff" stroke-width="0"/>
 <path d="m175 0c-96.9 0-175 78.1-175 175s78.1 175 175 175 175-78.1 175-175-78.1-175-175-175zm-6.06 66.1c0.0411 0.0411 1.86 6.63 4.07 14.7 2.21 8.01 4.05 14.6 4.11 14.7 0.0411 0.0621 0.86-0.0402 1.83-0.205 8.58-1.52 18.5-1.94 24.3-1.06 13.8 2.14 22.3 9.06 26.5 21.9 4.05 12.2 2 22.3-6.21 30.8l-1.5 1.56h2.43c17.1 0 27.8 8.12 32.2 24.5 2.67 9.69 2.78 18.7 0.308 26.2-0.844 2.6-2.82 6.45-4.48 8.79-3 4.22-8.62 9.14-14.4 12.6-5.71 3.41-15.5 7.79-22.3 9.95-0.617 0.206-1.2 0.413-1.28 0.497-0.0822 0.0613 1.46 5.97 3.41 13.1 1.98 7.15 3.81 13.8 4.09 14.9l0.512 1.86-8.79 2.41c-4.81 1.32-8.86 2.38-8.97 2.38-0.124 0-2.02-6.54-4.2-14.6-2.21-8.03-4-14.6-4.02-14.6-0.021-0.0416-2.95 0.726-6.52 1.68-3.57 0.947-6.78 1.8-7.13 1.88-0.37 0.0613-0.685 0.236-0.685 0.359 0 0.228 0.326 1.41 5.34 19.6 1.46 5.34 2.65 9.69 2.6 9.73-0.0209 0.021-4.05 1.16-8.92 2.49l-8.86 2.43-0.205-0.632c-0.124-0.35-1.28-4.57-2.62-9.41-4.02-14.7-5.4-19.6-5.49-19.7-0.0621-0.0416-8.18 2.12-18.1 4.81-9.91 2.69-18 4.9-18.1 4.88-0.0621-0.0613-2.3-21.4-2.3-22.1 0-0.35 0.152-0.479 0.667-0.582 1.54-0.289 11.5-3.02 12.9-3.54 2.08-0.783 3.74-2.34 4.2-3.98 0.578-1.96 0.429-3.19-0.888-8.03-0.68-2.45-2.87-10.4-4.86-17.6-2-7.24-4.92-17.8-6.5-23.6-1.57-5.73-3.96-14.5-5.36-19.5-1.38-4.99-2.93-10.6-3.41-12.5-0.514-1.87-1.18-3.81-1.49-4.33-0.906-1.59-2.28-2.84-3.92-3.63-1.38-0.7-1.73-0.792-3.52-0.855-2.76-0.124-4.81 0.343-15.1 3.35-1.67 0.475-2.47 0.608-2.52 0.444-0.144-0.411-5.08-18.6-5.12-18.7 0-0.0823 1.8-0.667 4-1.26 2.21-0.617 10.3-2.84 17.9-4.97 7.63-2.1 14-3.89 14-3.94 0.0823-0.0621-1.66-6.65-3.87-14.7-2.21-7.98-3.96-14.6-3.92-14.7 0.0411-0.124 0.564-0.352 1.16-0.497 0.617-0.165 4.57-1.26 8.82-2.41 4.24-1.17 7.77-2.13 7.77-2.08 0.0209 0.0206 1.8 6.5 3.96 14.4 2.18 7.88 4 14.3 4.05 14.4 0.0411 0.0411 2.82-0.72 6.21-1.71 3.37-0.989 6.54-1.9 7.07-2.07 0.722-0.206 0.912-0.343 0.871-0.632-0.0411-0.228-1.8-6.61-3.87-14.2-2.08-7.57-3.78-13.9-3.78-14 0-0.185 17.7-5.14 17.8-5.01zm8.77 52.9c-4.68 0.124-8.25 0.656-14 2.12-3.52 0.864-12.5 3.48-12.7 3.68-0.0822 0.0823 2.58 9.98 8.86 32.8 0.494 1.79 0.949 3.04 1.09 3.04 0.124 0 1.85-0.424 3.81-0.941 13.5-3.54 20.9-6.61 26.7-11.1 2-1.57 3.3-2.98 4.64-4.99 1.24-1.87 1.79-3.32 2.21-5.71 0.392-2.32 0.144-4.83-0.803-7.61-2.1-6.28-6.39-9.73-13.6-11-1.69-0.267-2.89-0.326-6.12-0.223zm21.1 52.5c-5.23 0.196-11.4 1.23-18.7 3.08-4.66 1.19-14.3 4.05-14.3 4.27 0 0.0823 2.41 8.92 5.36 19.6 2.95 10.7 5.36 19.5 5.36 19.6 0 0.206 0.44 0.111 4.79-1.04 19.1-5.01 29.5-9.67 35.7-16.2 1.92-2.02 2.71-3.11 3.7-5.21 1.11-2.32 1.44-3.83 1.42-6.52 0-4.35-1.63-8.64-4.42-11.6-4.09-4.35-10.2-6.37-18.9-6.04z" fill="#8652c3"/>
</svg>
