<svg width="48px" height="48px" fill="#e3e3e3" version="1.1" viewBox="0 -960 960 960" xmlns="http://www.w3.org/2000/svg">
 <g>
  <path d="m366.28-653.15h226.91v-74.932c0-35.179-10.909-63.675-32.727-85.486-21.825-21.811-48.826-32.717-81.001-32.717-31.887 0-58.722 10.906-80.505 32.717-21.783 21.811-32.675 50.307-32.675 85.486zm-150.92 638.51c-27.06 0-50.535-9.8397-70.426-29.519-19.89-19.686-29.836-42.915-29.836-69.687v-439.04c0-27.06 9.9452-50.535 29.836-70.426 19.89-19.89 43.366-29.836 70.426-29.836h51.714v-74.932c0-63.562 20.32-115.86 60.959-156.9 40.639-41.04 90.946-61.561 150.92-61.561s110.54 20.756 151.7 62.268c41.16 41.512 61.74 93.577 61.74 156.2v74.932h51.714c27.06 0 50.535 9.9452 70.426 29.836s29.844 43.366 29.836 70.426c2.3625 47.033 3.1311 311.16 1.6576 413.21l0.38277 126.99-109.32 0.44505c-173.95-0.35352-347.78-2.3979-521.73-2.3979z" fill="#008080"/>
  <path d="m316.95-146.16h168.2v-60.881q0-35.084-24.507-59.333-24.507-24.249-59.591-24.249t-59.591 24.249q-24.507 24.249-24.507 59.333zm-93.901 48.498v-48.498h45.403v-60.7q0-35.264 18.316-64.673 18.316-29.409 49.272-45.403-30.956-16.51-49.272-45.919-18.316-29.409-18.316-64.673v-60.184h-45.403v-49.014h356.51v49.014h-45.403v60.184q0 35.264-18.316 64.673-18.316 29.409-49.272 45.919 30.956 15.994 49.272 45.403 18.316 29.409 18.316 64.673v60.7h45.403v48.498z" fill="#fff"/>
  <path d="m658.28-262.46h85.823v-267h-85.823zm42.203 153.94c13.259 0 24.979-4.8542 35.16-14.563 10.181-9.7175 15.271-21.201 15.271-34.452 0-13.259-5.0813-24.979-15.244-35.16-10.172-10.181-21.882-15.271-35.133-15.271-13.259 0-24.979 5.0812-35.16 15.244-10.181 10.172-15.271 21.882-15.271 35.133 0 13.259 5.0813 24.752 15.244 34.479 10.172 9.7266 21.882 14.59 35.133 14.59z" fill="#f00"/>
 </g>
</svg>
