<?xml version="1.0" encoding="UTF-8" standalone="no"?>
<svg viewBox='0 0 16 16' style='width:400px; height:400px;' xmlns="http://www.w3.org/2000/svg">
  <circle
     style="fill:#ffffff;"
     cx="8"
     cy="8"
     r="8" />
  <path
     d="M 8,0 A 8,8 0 0 0 0,8 8,8 0 0 0 8,16 8,8 0 0 0 16,8 7,8 0 0 0 8,0 Z M 3.6428409,3.5916164 6.0235251,3.5999014 8.2564365,6.7194487 9.4959816,5.0776281 8.6668852,4.9791363 V 3.5918059 h 4.0142188 v 1.4448325 l -0.804489,0.1395741 -2.2821268,2.7992687 2.4052918,2.9307198 0.837383,0.131376 v 1.436671 H 10.497534 L 8.10,9.2644304 6.8033428,11.004808 7.52,11.095 v 1.38 H 3.561 V 11.0375 L 4.39,10.90 6.787,8.016 4.472,5.176 3.64,5.036 Z"
     fill="#ffb200"/>
</svg>
