<svg version="1.1" viewBox="0 0 16 16" xmlns="http://www.w3.org/2000/svg" xmlns:xlink="http://www.w3.org/1999/xlink">
 <defs>
  <linearGradient id="a" x1="4.54e-7" x2="16" y1="8" y2="8" gradientUnits="userSpaceOnUse">
   <stop stop-color="#ccfed8" offset="0"/>
   <stop stop-color="#95baff" offset="1"/>
  </linearGradient>
 </defs>
 <g>
  <circle cx="8" cy="8" r="8" fill="url(#a)" stroke-width="0"/>
  <circle cx="8" cy="8" r="6" fill="#ffa5bf" stroke-width="0"/>
  <path d="m7.96 1.07a6.93 6.93 0 0 0-6.89 6.93 6.93 6.93 0 0 0 6.93 6.93 6.93 6.93 0 0 0 6.93-6.93 6.93 6.93 0 0 0-6.93-6.93 6.93 6.93 0 0 0-0.0371 0zm-0.244 1.94 0.00391 0.00586c0.00188 0.00188 0.0847 0.303 0.186 0.67 0.101 0.366 0.186 0.668 0.189 0.67 0.00188 0.00284 0.0377-2.72e-4 0.082-0.00781 0.392-0.0697 0.847-0.0893 1.11-0.0488 0.633 0.0979 1.02 0.413 1.21 0.998 0.185 0.557 0.0921 1.02-0.283 1.41l-0.0684 0.0723h0.111c0.78 0 1.27 0.37 1.47 1.12 0.122 0.443 0.127 0.856 0.0137 1.2-0.0386 0.119-0.129 0.295-0.205 0.402-0.137 0.193-0.392 0.418-0.656 0.576-0.261 0.156-0.711 0.356-1.02 0.455-0.0282 0.0094-0.0548 0.0196-0.0586 0.0234-0.00376 0.0028 0.067 0.272 0.156 0.598 0.0904 0.327 0.174 0.633 0.187 0.68l0.0234 0.0859-0.402 0.109c-0.22 0.0603-0.405 0.109-0.41 0.109-0.00565 0-0.0918-0.299-0.191-0.666-0.101-0.367-0.183-0.669-0.184-0.67-9.58e-4 -0.0019-0.136 0.0328-0.299 0.0762-0.163 0.0433-0.31 0.0822-0.326 0.0859-0.0169 0.0028-0.0312 0.012-0.0312 0.0176 0 0.0104 0.015 0.064 0.244 0.896 0.0669 0.244 0.121 0.443 0.119 0.445-9.58e-4 9.58e-4 -0.185 0.0522-0.408 0.113l-0.404 0.111-0.00977-0.0293c-0.00565-0.016-0.0594-0.209-0.121-0.43-0.184-0.671-0.246-0.895-0.25-0.9-0.00284-0.0019-0.373 0.0977-0.826 0.221-0.453 0.123-0.824 0.224-0.826 0.223-0.00284-0.0028-0.105-0.98-0.105-1.01 0-0.016 0.00573-0.0226 0.0293-0.0273 0.0706-0.0132 0.527-0.136 0.592-0.16 0.0951-0.0358 0.17-0.109 0.191-0.184 0.0264-0.0894 0.0211-0.146-0.0391-0.367-0.0311-0.112-0.132-0.474-0.223-0.805-0.0913-0.331-0.225-0.816-0.297-1.08-0.0716-0.262-0.182-0.663-0.246-0.891-0.0631-0.228-0.132-0.484-0.154-0.57-0.0235-0.0857-0.0542-0.173-0.0684-0.197-0.0414-0.0725-0.105-0.13-0.18-0.166-0.0631-0.032-0.0782-0.0362-0.16-0.0391-0.126-0.00565-0.22 0.015-0.691 0.152-0.0763 0.0217-0.113 0.029-0.115 0.0215-0.00659-0.0188-0.232-0.849-0.234-0.857 0-0.00376 0.0827-0.0313 0.184-0.0586 0.101-0.0282 0.468-0.13 0.818-0.227 0.349-0.096 0.639-0.178 0.643-0.18 0.00376-0.00284-0.0765-0.304-0.178-0.67-0.101-0.365-0.18-0.67-0.178-0.674 0.00188-0.00565 0.0254-0.0149 0.0527-0.0215 0.0282-0.00753 0.208-0.0587 0.402-0.111 0.194-0.0537 0.355-0.0956 0.355-0.0938 9.58e-4 9.42e-4 0.083 0.295 0.182 0.654 0.0998 0.36 0.182 0.656 0.184 0.658 0.00188 0.00188 0.13-0.0329 0.285-0.0781 0.154-0.0452 0.298-0.0862 0.322-0.0938 0.033-0.00942 0.041-0.0161 0.0391-0.0293-0.00188-0.0104-0.081-0.301-0.176-0.648-0.0951-0.346-0.174-0.635-0.174-0.641 0-0.00847 0.809-0.235 0.816-0.229zm0.404 2.43c-0.214 0.00565-0.377 0.0308-0.641 0.0977-0.161 0.0395-0.572 0.159-0.58 0.168-0.00376 0.00376 0.117 0.456 0.404 1.5 0.0226 0.0819 0.0442 0.139 0.0508 0.139 0.00565 0 0.0846-0.0194 0.174-0.043 0.619-0.162 0.957-0.303 1.22-0.51 0.0913-0.0716 0.15-0.135 0.211-0.227 0.0565-0.0857 0.0826-0.153 0.102-0.262 0.0179-0.106 0.00619-0.221-0.0371-0.348-0.096-0.287-0.291-0.446-0.621-0.502-0.0772-0.0122-0.133-0.0145-0.281-0.00977l-0.00195-0.00391zm0.963 2.4c-0.239 0.00911-0.522 0.0561-0.854 0.141-0.213 0.0546-0.654 0.185-0.654 0.195 0 0.00376 0.109 0.408 0.244 0.898 0.135 0.49 0.246 0.892 0.246 0.895 0 0.00942 0.0198 0.0059 0.219-0.0469 0.874-0.229 1.35-0.443 1.63-0.74 0.0876-0.0923 0.123-0.142 0.168-0.238 0.0508-0.106 0.0655-0.174 0.0645-0.297 0-0.199-0.0736-0.394-0.201-0.529-0.187-0.199-0.465-0.292-0.861-0.277h-0.00195z" fill="#4c7e7c"/>
 </g>
</svg>
