<svg width="196" height="196" version="1.1" viewBox="0 0 196 196" xmlns="http://www.w3.org/2000/svg">
 <rect x="7.15" y="11.8" width="182" height="177" rx="18.3" ry="18.2" fill="#8dc351" stroke="#000" stroke-linecap="round" stroke-linejoin="round" stroke-width="8"/>
 <g transform="matrix(.0103 0 0 .0103 -23.7 -6.09)" fill="#fff">
  <path d="m7751 13046c-6-17-62-222-127-456-195-713-262-951-266-956-3-2-398 103-879 234s-875 238-877 237c-3-3-112-1041-112-1071 0-17 8-23 33-28 75-14 558-147 627-172 101-38 181-113 204-193 28-95 21-155-43-390-33-119-139-504-236-856s-239-867-315-1145-193-703-260-945-142-514-166-605c-25-91-57-185-72-210-44-77-110-138-190-177-67-34-84-38-171-41-134-6-233 16-734 162-81 23-120 30-122 22-7-20-247-901-249-910 0-4 87-33 194-62 107-30 499-138 870-241 371-102 678-189 682-192s-81-323-188-711-192-710-190-715c2-6 28-17 57-24 30-8 222-61 428-117 206-57 376-103 377-101 1 1 88 315 193 697 106 382 194 696 196 698s137-35 302-83c164-48 318-92 343-100 35-10 44-17 42-31-2-11-87-320-188-689-101-368-184-674-184-680 0-9 858-250 865-243 2 2 91 322 198 711s196 710 199 712c2 3 42-2 89-10 416-74 899-94 1184-51 672 104 1078 440 1283 1061 196 592 97 1085-302 1499l-73 76h118c828 0 1344 393 1564 1190 130 470 135 910 15 1273-41 126-137 313-218 427-145 205-419 444-699 612-277 166-754 378-1083 483-30 10-58 20-62 24-4 3 71 290 166 636 96 347 185 671 198 721l25 91-426 117c-234 64-431 116-436 116-6 0-98-318-204-707-107-390-195-709-196-710-1-2-143 35-316 81s-329 87-346 91c-18 3-33 12-33 18 0 11 16 68 259 952 71 259 128 471 126 473-1 1-196 56-433 121l-431 118zm442-2762c928-243 1429-470 1733-785 93-98 132-151 179-252 54-113 70-186 69-317 0-211-79-419-214-563-317-339-883-384-1824-143-226 58-696 197-696 207 0 4 117 433 260 953s260 948 260 951c0 10 22 5 233-51zm-802-2789c657-172 1015-321 1295-540 97-76 161-145 225-243 60-91 87-161 107-277 19-113 7-234-39-369-102-305-310-473-660-532-82-13-140-16-298-11-227 6-400 32-681 103-171 42-609 170-618 179-4 4 126 484 431 1588 24 87 46 147 53 147 6 0 90-20 185-45z" fill="#fff"/>
 </g>
 <path d="m115 74h55.3c11.5 0 23.5 9.67 20.7 20.7l-13.8 55.3c-2.78 11.1-9.24 20.7-20.7 20.7h-27.6c-11.5 0-18-9.67-20.7-20.7l-13.8-55.3c-2.76-10.9 9.24-20.7 20.7-20.7z" fill="#ff00ec" stroke="#000" stroke-width="8"/>
 <path d="m108 87.8h20.7l13.8 44.9c6.91-24.2 9.05-31.1 13.8-44.9h20.7l-24.2 69.1h-20.7z" fill="#fff"/>
</svg>
