<svg width="48px" height="48px" fill="#e3e3e3" version="1.1" viewBox="0 -960 960 960" xmlns="http://www.w3.org/2000/svg">
 <path d="m373.2-658.5h233.1v-76.99c0-36.15-11.21-65.43-33.63-87.84-22.43-22.41-50.17-33.62-83.23-33.62-32.76 0-60.34 11.21-82.72 33.62s-33.57 51.69-33.57 87.84zm-155.1 656.1c-27.8 0-51.93-10.11-72.36-30.33-20.44-20.23-30.66-44.1-30.66-71.6v-451.1c0-27.8 10.22-51.93 30.66-72.36 20.44-20.44 44.56-30.66 72.36-30.66h53.14v-76.99c0-65.31 20.88-119.1 62.64-161.2 41.76-42.17 93.45-63.25 155.1-63.25 61.62 0 113.6 21.33 155.9 63.98 42.29 42.65 63.44 96.15 63.44 160.5v76.99h53.14c27.8 0 51.93 10.22 72.36 30.66 20.44 20.44 30.67 44.56 30.66 72.36 2.428 48.33 3.217 319.7 1.703 424.6l0.3933 130.5-112.3 0.4573c-178.7-0.3632-357.3-2.464-536.1-2.464z" fill="#008080"/>
 <path d="m208.4-208.8c-12.37 0-22.91-4.351-31.61-13.05-8.702-8.705-13.05-19.25-13.05-31.61v-286.1c0-12.5 4.351-23.15 13.05-31.95 8.705-8.797 19.25-13.2 31.61-13.2h26.61v-28.51h38.96v28.51h145.4v-28.51h38.96v28.51h26.61c12.5 0 23.15 4.398 31.95 13.2 8.797 8.797 13.2 19.45 13.2 31.95v139.2h-45.14v-53.21h-276.5v200h170.6v44.67zm0-273.2h276.5v-57.5h-276.5zm0 0v-57.5z" stroke-width=".5"/>
 <path d="m592.5-36.5c-45.84 0-85.29-16.54-118.4-49.61-33.07-33.07-49.61-72.53-49.61-118.4 0-45.84 16.54-85.29 49.61-118.4 33.07-33.07 72.53-49.61 118.4-49.61 45.84 0 85.29 16.54 118.4 49.61 33.07 33.07 49.61 72.53 49.61 118.4 0 45.84-16.54 85.29-49.61 118.4-33.07 33.07-72.53 49.61-118.4 49.61zm64.4-73.11 30.46-30.46-74.85-68.23v-111.1h-47v125.1z"/>
 <g transform="matrix(1.306 0 0 1.31 -254 141.2)" stroke-width=".7644">
  <g fill="none" stroke="#e3e3e3">
   <path d="m736.5-409 82.29-117.1 4.566-6.33-4.497-6.405-8.535-7.188-41.13-12.03-58.95 0.0585-40.31 9.046-12.94 7.458-5.812 10.55 3.891 9.3z" stroke-width="15.29"/>
   <g stroke-linejoin="bevel" stroke-width="7.644">
    <path d="m736.5-409 29.48-119.3-61.29 0.2825 0.9163-29.85"/>
    <path d="m651.2-530.9 53.51 2.862 61.29-0.2825 57.38-4.065"/>
    <path d="m736.5-409-31.93-119.3 61.29 0.2825-0.9163-29.85"/>
   </g>
  </g>
 </g>
</svg>
