<svg width="48" height="48" version="1.1" viewBox="0 0 960 960" xmlns="http://www.w3.org/2000/svg">
 <rect width="960" height="960" rx="100" ry="100" fill="#fff"/>
 <path d="m120 30c-49.86 0-90 40.14-90 90v720c0 49.86 40.14 90 90 90h720c49.86 0 90-40.14 90-90v-720c0-49.86-40.14-90-90-90zm253.5 187.6c48.78 1.227 101.4 30.71 142.3 102.8 97.39-177.9 251.4-52.86 243.1 95.24-8.3 148.1-263.1 273.4-366.7 375.4 28.74-162-140.6-269.9-159.1-410.9-11.53-88.11 59.13-164.5 140.4-162.4z" fill="#800000"/>
</svg>
